<?xml version="1.0" encoding="utf-8"?>
<!-- Generator: Adobe Illustrator 16.0.0, SVG Export Plug-In . SVG Version: 6.00 Build 0)  -->
<!DOCTYPE svg PUBLIC "-//W3C//DTD SVG 1.1//EN" "http://www.w3.org/Graphics/SVG/1.1/DTD/svg11.dtd">
<svg version="1.1" id="Layer_1" xmlns="http://www.w3.org/2000/svg" xmlns:xlink="http://www.w3.org/1999/xlink" x="0px" y="0px"
	 width="270px" height="159.678px" viewBox="0 0 270 159.678" enable-background="new 0 0 270 159.678" xml:space="preserve">
<g>
	<defs>
		<rect id="SVGID_1_" x="2" y="1.642" width="266" height="156.395"/>
	</defs>
	<clipPath id="SVGID_2_">
		<use xlink:href="#SVGID_1_"  overflow="visible"/>
	</clipPath>
	<g clip-path="url(#SVGID_2_)">
		<defs>
			<rect id="SVGID_3_" x="2" y="1.642" width="266" height="156.395"/>
		</defs>
		<clipPath id="SVGID_4_">
			<use xlink:href="#SVGID_3_"  overflow="visible"/>
		</clipPath>
		<path clip-path="url(#SVGID_4_)" fill="#00ADEE" d="M263.505,157.896c-0.767,0-1.388-0.623-1.388-1.389
			c0-0.77,0.621-1.39,1.388-1.39s1.389,0.62,1.389,1.39C264.894,157.272,264.271,157.896,263.505,157.896"/>
		<circle clip-path="url(#SVGID_4_)" fill="none" stroke="#00ADEE" stroke-width="0.25" cx="263.505" cy="156.506" r="1.389"/>
		<path clip-path="url(#SVGID_4_)" fill="#00ADEE" d="M255.43,157.896c-0.767,0-1.389-0.623-1.389-1.389
			c0-0.77,0.622-1.39,1.389-1.39s1.389,0.62,1.389,1.39C256.818,157.272,256.196,157.896,255.43,157.896"/>
		<circle clip-path="url(#SVGID_4_)" fill="none" stroke="#00ADEE" stroke-width="0.25" cx="255.43" cy="156.506" r="1.389"/>
		<path clip-path="url(#SVGID_4_)" fill="#00ADEE" d="M252.035,156.169l1.129-7.24l5.005-10.559c0,0,5.075,0.178,6.972,0.105
			c1.897-0.07,2.314,1.307,2.314,1.307s0.194,12.255,0.088,14.398c-0.072,1.474-1.171,1.903-1.854,2.032
			c0.001-0.027,0.008-0.054,0.008-0.081c0-1.241-1.005-2.245-2.242-2.245c-1.241,0-2.246,1.004-2.246,2.245
			c0,0.039,0.01,0.073,0.012,0.11l-3.504-0.028c0-0.027,0.008-0.055,0.008-0.082c0-1.241-1.008-2.245-2.246-2.245
			c-1.239,0-2.243,1.004-2.243,2.245c0,0.016,0.005,0.03,0.005,0.047L252.035,156.169z"/>
		
			<path clip-path="url(#SVGID_4_)" fill="none" stroke="#00ADEE" stroke-width="0.743" stroke-linecap="round" stroke-linejoin="round" d="
			M252.035,156.169l1.129-7.24l5.005-10.559c0,0,5.075,0.178,6.972,0.105c1.897-0.07,2.314,1.307,2.314,1.307
			s0.194,12.255,0.088,14.398c-0.072,1.474-1.171,1.903-1.854,2.032c0.001-0.027,0.008-0.054,0.008-0.081
			c0-1.241-1.005-2.245-2.242-2.245c-1.241,0-2.246,1.004-2.246,2.245c0,0.039,0.01,0.073,0.012,0.11l-3.504-0.028
			c0-0.027,0.008-0.055,0.008-0.082c0-1.241-1.008-2.245-2.246-2.245c-1.239,0-2.243,1.004-2.243,2.245
			c0,0.016,0.005,0.03,0.005,0.047L252.035,156.169z"/>
		<path clip-path="url(#SVGID_4_)" fill="#FFFFFF" d="M265.626,140.248h-6.408c0,0-0.823,0.036-1.397,1.344
			c-0.573,1.307-3.615,7.252-3.615,7.252s-0.599,1.685,1.438,1.79c2.035,0.108,9.771,0,9.771,0s1.062,0.11,1.122-1.824
			c0.058-1.936-0.049-7.736-0.049-7.736L265.626,140.248z"/>
		<path clip-path="url(#SVGID_4_)" fill="#00ADEE" d="M254.193,138.422c0,0-1.218-0.027-1.828,2.614
			c-0.605,2.645-2.791,13.09-2.791,13.09L2.812,154.188c0,0,0.268,1.123,1.64,1.131c1.625-0.064,246.447,0,246.447,0l2.755-13.782
			L254.193,138.422z"/>
	</g>
	<polygon clip-path="url(#SVGID_2_)" fill="#00ADEE" points="252.662,150.98 252.364,152.635 250.371,152.635 251.016,150.98 	"/>
	<g clip-path="url(#SVGID_2_)">
		<defs>
			<rect id="SVGID_5_" x="2" y="1.642" width="266" height="156.395"/>
		</defs>
		<clipPath id="SVGID_6_">
			<use xlink:href="#SVGID_5_"  overflow="visible"/>
		</clipPath>
		<path clip-path="url(#SVGID_6_)" fill="#96C93E" d="M89.662,21.988c0-18.649-19.33-20.346-27.299-20.346
			c-21.872,0-39.168,12.716-39.168,30.35c0,24.925,34.759,35.27,34.759,64.263c0,14.244-8.308,22.55-19.668,22.55
			c-10.852,0-16.278-7.799-16.278-16.276c0-11.7,10.684-15.938,19.839-15.938c-0.51-8.817-8.988-11.19-14.922-11.19
			C15.056,75.4,2,84.895,2,103.208c0,20.686,16.617,29.165,35.946,29.165c24.587,0,47.646-13.905,47.646-42.39
			c0-36.624-38.15-40.016-38.15-64.941c0-10.174,6.273-15.429,15.6-15.429c9.325,0,12.546,5.425,12.546,11.359
			c0,5.596-3.051,11.87-7.631,14.582c2.207,2.543,4.75,3.562,7.8,3.562C84.236,39.115,89.662,31.823,89.662,21.988"/>
		<g clip-path="url(#SVGID_6_)">
			<g>
				<defs>
					<rect id="SVGID_7_" x="65.127" y="48.161" width="75.033" height="84.501"/>
				</defs>
				<clipPath id="SVGID_8_">
					<use xlink:href="#SVGID_7_"  overflow="visible"/>
				</clipPath>
				<path clip-path="url(#SVGID_8_)" fill="#EB008B" d="M99.648,75.848h7.365l11.881-18.557h-10.309L99.648,75.848z M107.112,81.837
					l-6.678,31.519c-1.474,4.909-4.025,8.639-7.854,8.639c-2.161,0-2.946-1.765-2.946-4.025c0-0.884,0.1-1.766,0.295-2.749
					l7.068-33.383h-14.14l-6.676,31.519c-0.49,2.355-0.784,4.517-0.784,6.38c0,8.249,4.614,11.785,10.506,11.785
					c4.123,0,9.621-1.277,14.53-9.328c0.59,6.087,4.124,9.328,9.72,9.328c5.303,0,14.139-2.161,19.736-18.165h-4.124
					c-1.474,4.909-4.124,8.639-7.954,8.639c-2.748,0-4.025-0.883-4.025-3.631c0-0.886,0.099-1.866,0.392-3.144l7.071-33.383H107.112
					z"/>
			</g>
		</g>
		<g clip-path="url(#SVGID_6_)">
			<g>
				<defs>
					<rect id="SVGID_9_" x="106.098" y="53.071" width="61.189" height="79.591"/>
				</defs>
				<clipPath id="SVGID_10_">
					<use xlink:href="#SVGID_9_"  overflow="visible"/>
				</clipPath>
				<path clip-path="url(#SVGID_10_)" fill="#00ADEE" d="M147.101,97.941c0,10.31-5.107,24.055-11.487,24.055
					c-3.537,0-5.206-1.669-5.206-4.516c0-0.688,0.099-1.474,0.295-2.26l5.401-24.939c1.081-1.277,4.419-1.769,5.791-1.769
					C145.433,88.513,147.101,93.129,147.101,97.941 M117.054,113.356c-0.49,2.062-0.687,3.929-0.687,5.596
					c0,7.855,4.713,12.569,13.746,12.569c20.816,0,26.904-21.699,26.904-33.188c0-12.47-4.715-16.791-11.585-16.791
					c-1.967,0-4.028,0.294-8.054,2.749l4.714-22.092l-14.534,1.963L117.054,113.356z"/>
			</g>
		</g>
		<g clip-path="url(#SVGID_6_)">
			<g>
				<defs>
					<rect id="SVGID_11_" x="138.131" y="71.291" width="62.86" height="60.838"/>
				</defs>
				<clipPath id="SVGID_12_">
					<use xlink:href="#SVGID_11_"  overflow="visible"/>
				</clipPath>
				<path clip-path="url(#SVGID_12_)" fill="#F37D34" d="M178.15,89.649c0,8.15-6.676,15.711-14.235,16.203
					c1.963-9.722,6.775-20.228,11.781-20.228C177.562,85.624,178.15,87.195,178.15,89.649 M162.931,114.492
					c0-1.18,0.1-2.554,0.198-3.926c11.782-0.691,22.583-9.428,22.583-20.72c0-4.908-2.061-9.426-10.801-9.426
					c-20.127,0-26.511,23.663-26.511,34.954c0,11.096,6.088,15.613,15.315,15.613c13.062,0,21.407-9.131,27.005-18.166h-3.34
					c-4.91,5.597-9.622,9.919-17.38,9.919C165.289,122.74,162.931,121.169,162.931,114.492"/>
			</g>
		</g>
		<g clip-path="url(#SVGID_6_)">
			<g>
				<defs>
					<rect id="SVGID_13_" x="173.451" y="57.194" width="51.666" height="75.468"/>
				</defs>
				<clipPath id="SVGID_14_">
					<use xlink:href="#SVGID_13_"  overflow="visible"/>
				</clipPath>
				<path clip-path="url(#SVGID_14_)" fill="#3FAC49" d="M194.129,68.287l-2.943,13.55h-3.242l-0.785,3.927h3.24l-5.891,27.592
					c-0.491,2.356-0.787,4.517-0.787,6.38c0,8.25,4.617,11.785,10.507,11.785c5.304,0,15.021-2.16,20.621-18.165h-4.126
					c-1.474,4.908-5.005,8.64-8.834,8.64c-2.752,0-4.027-0.884-4.027-3.633c0-0.883,0.098-1.865,0.393-3.143l6.283-29.457h5.893
					l0.785-3.927h-5.893l3.338-15.514L194.129,68.287z"/>
			</g>
		</g>
		<g clip-path="url(#SVGID_6_)">
			<g>
				<defs>
					<rect id="SVGID_15_" x="196.012" y="71.825" width="62.859" height="60.837"/>
				</defs>
				<clipPath id="SVGID_16_">
					<use xlink:href="#SVGID_15_"  overflow="visible"/>
				</clipPath>
				<path clip-path="url(#SVGID_16_)" fill="#96C93E" d="M236.031,90.182c0,8.151-6.675,15.711-14.236,16.203
					c1.962-9.722,6.776-20.227,11.783-20.227C235.441,86.158,236.031,87.729,236.031,90.182 M220.813,115.025
					c0-1.179,0.098-2.553,0.197-3.928c11.782-0.688,22.582-9.426,22.582-20.717c0-4.91-2.062-9.428-10.8-9.428
					c-20.131,0-26.511,23.665-26.511,34.956c0,11.096,6.087,15.613,15.316,15.613c13.06,0,21.404-9.132,27.002-18.165h-3.337
					c-4.913,5.595-9.623,9.917-17.383,9.917C223.171,123.273,220.813,121.702,220.813,115.025"/>
			</g>
		</g>
		<path clip-path="url(#SVGID_6_)" fill="#00ADEE" d="M243.168,145.528c-0.32,2.298,3.614,1.861,3.439,3.042
			c-0.093,0.532-0.743,0.692-1.501,0.692c-0.81,0-1.688-0.252-2.284-0.705l-0.201,1.265c0.572,0.384,1.449,0.636,2.445,0.636
			c1.383,0,2.752-0.397,2.978-1.794c0.37-2.337-3.587-1.847-3.429-3.055c0.067-0.505,0.704-0.704,1.355-0.704
			c0.771,0,1.554,0.253,2.088,0.609l0.185-1.221c-0.571-0.321-1.37-0.56-2.272-0.56
			C244.773,143.734,243.365,144.172,243.168,145.528 M235.923,147.151c0.214-1.29,1.211-2.114,2.406-2.114
			c1.183,0,1.849,0.798,1.662,2.007c-0.213,1.288-1.197,2.111-2.407,2.111C236.403,149.155,235.739,148.346,235.923,147.151
			 M241.386,147.204c0.372-2.248-1.208-3.47-2.95-3.47c-1.755,0-3.574,1.091-3.92,3.257c-0.36,2.245,1.182,3.467,2.952,3.467
			C239.193,150.458,241.054,149.37,241.386,147.204 M228.363,144.73c-0.293-0.599-0.891-0.996-1.82-0.996
			c-0.986,0-1.835,0.56-2.274,1.011l0.147-0.838h-1.263l-1.009,6.38h1.421l0.677-4.256c0.387-0.437,1.076-1.034,1.887-1.034
			c0.744,0,1.146,0.464,1.024,1.274l-0.637,4.016h1.42l0.625-3.935c0.027-0.146,0.041-0.292,0.041-0.438
			c0.37-0.4,1.022-0.918,1.768-0.918c0.743,0,1.141,0.464,1.021,1.274l-0.637,4.016h1.423l0.623-3.935
			c0.2-1.33-0.385-2.618-2.062-2.618C229.825,143.734,229.014,144.186,228.363,144.73 M219.539,146.593h-3.55
			c0.226-1.038,1.171-1.676,2.168-1.676C219.527,144.917,219.711,145.967,219.539,146.593 M214.488,147.016
			c-0.348,2.275,1.383,3.442,3.176,3.442c0.917,0,1.7-0.158,2.287-0.425l0.213-1.273c-0.586,0.304-1.358,0.49-2.193,0.49
			c-1.051,0-2.152-0.427-2.14-1.595h4.81c0.693-1.846,0.028-3.921-2.471-3.921C216.656,143.734,214.836,144.772,214.488,147.016
			 M207.446,147.005c-0.372,2.351,1.233,3.453,3.017,3.453c0.782,0,1.462-0.146,2.111-0.438l0.216-1.356
			c-0.614,0.308-1.29,0.532-1.996,0.532c-1.195,0-2.151-0.639-1.926-2.073c0.239-1.54,1.528-2.126,2.697-2.126
			c0.624,0,1.196,0.161,1.647,0.545l0.213-1.248c-0.572-0.373-1.25-0.56-1.993-0.56C209.797,143.734,207.816,144.64,207.446,147.005
			 M204.708,146.593h-3.55c0.228-1.038,1.172-1.676,2.168-1.676C204.695,144.917,204.881,145.967,204.708,146.593 M199.658,147.016
			c-0.347,2.275,1.384,3.442,3.178,3.442c0.914,0,1.698-0.158,2.283-0.425l0.213-1.273c-0.583,0.304-1.355,0.49-2.191,0.49
			c-1.05,0-2.152-0.427-2.14-1.595h4.809c0.692-1.846,0.027-3.921-2.471-3.921C201.824,143.734,200.004,144.772,199.658,147.016
			 M196.229,144.931l0.16-1.023h-1.263l-1.012,6.38h1.424l0.612-3.828c0.518-0.931,1.568-1.488,2.721-1.263l0.228-1.421
			C197.72,143.654,196.801,144.132,196.229,144.931 M185.414,145.41c-0.547,3.39,1.912,5.048,4.212,5.048
			c0.916,0,1.872-0.158,2.656-0.545l0.241-1.567c-0.707,0.454-1.61,0.718-2.541,0.718c-1.645,0-3.439-1.062-3.043-3.495
			c0.373-2.312,2.461-3.361,4.255-3.361c0.836,0,1.605,0.224,2.138,0.663l0.212-1.408c-0.718-0.44-1.54-0.651-2.538-0.651
			C188.722,140.811,185.904,142.364,185.414,145.41 M174.886,145.528c-0.316,2.298,3.617,1.861,3.443,3.042
			c-0.093,0.532-0.744,0.692-1.501,0.692c-0.812,0-1.688-0.252-2.286-0.705l-0.197,1.265c0.568,0.384,1.445,0.636,2.444,0.636
			c1.381,0,2.751-0.397,2.976-1.794c0.372-2.337-3.59-1.847-3.429-3.055c0.067-0.505,0.704-0.704,1.357-0.704
			c0.77,0,1.553,0.253,2.085,0.609l0.187-1.221c-0.574-0.321-1.369-0.56-2.271-0.56
			C176.495,143.734,175.087,144.172,174.886,145.528 M167.645,147.151c0.215-1.29,1.209-2.114,2.405-2.114
			c1.185,0,1.847,0.798,1.662,2.007c-0.213,1.288-1.197,2.111-2.407,2.111C168.122,149.155,167.457,148.346,167.645,147.151
			 M173.106,147.204c0.372-2.248-1.21-3.47-2.948-3.47c-1.757,0-3.577,1.091-3.922,3.257c-0.358,2.245,1.183,3.467,2.948,3.467
			C170.913,150.458,172.775,149.37,173.106,147.204 M163.048,146.271l-0.267,1.568c-0.426,0.706-1.276,1.371-2.298,1.371
			c-1.118,0-1.795-0.893-1.61-2.088c0.215-1.302,1.224-2.14,2.407-2.14C162.223,144.983,162.862,145.583,163.048,146.271
			 M163.885,140.985l-0.626,3.853c-0.356-0.571-1.091-1.104-2.231-1.104c-1.86,0-3.271,1.474-3.561,3.271
			c-0.292,1.873,0.757,3.453,2.683,3.453c1.211,0,2.034-0.519,2.579-1.222l-0.159,1.051h1.262l1.475-9.302H163.885z
			 M150.488,147.151c0.215-1.29,1.211-2.114,2.406-2.114c1.183,0,1.847,0.798,1.661,2.007c-0.212,1.288-1.197,2.111-2.406,2.111
			C150.97,149.155,150.304,148.346,150.488,147.151 M155.949,147.204c0.372-2.248-1.208-3.47-2.948-3.47
			c-1.755,0-3.576,1.091-3.921,3.257c-0.359,2.245,1.183,3.467,2.951,3.467C153.759,150.458,155.619,149.37,155.949,147.204
			 M142.674,140.985l-0.227,1.394h3.084l-1.249,7.908h1.517l1.249-7.908h3.069l0.226-1.394H142.674z M136.045,146.593h-3.55
			c0.227-1.038,1.169-1.676,2.167-1.676C136.031,144.917,136.215,145.967,136.045,146.593 M130.993,147.016
			c-0.344,2.275,1.384,3.442,3.177,3.442c0.918,0,1.7-0.158,2.286-0.425l0.214-1.273c-0.584,0.304-1.357,0.49-2.194,0.49
			c-1.05,0-2.152-0.427-2.14-1.595h4.812c0.69-1.846,0.028-3.921-2.474-3.921C133.159,143.734,131.339,144.772,130.993,147.016
			 M127.804,146.271l-0.266,1.568c-0.424,0.706-1.276,1.371-2.298,1.371c-1.117,0-1.795-0.893-1.609-2.088
			c0.212-1.302,1.223-2.14,2.405-2.14C126.98,144.983,127.619,145.583,127.804,146.271 M128.642,140.985l-0.624,3.853
			c-0.359-0.571-1.09-1.104-2.234-1.104c-1.859,0-3.269,1.474-3.562,3.271c-0.291,1.873,0.759,3.453,2.686,3.453
			c1.208,0,2.033-0.519,2.579-1.222l-0.16,1.051h1.262l1.475-9.302H128.642z M115.897,144.825l0.147-0.918h-1.263l-1.012,6.38h1.422
			l0.652-4.186c0.452-0.533,1.236-1.104,2.033-1.104c0.823,0,1.355,0.438,1.183,1.487l-0.6,3.803h1.423l0.625-3.907
			c0.239-1.503-0.598-2.646-2.166-2.646C117.412,143.734,116.536,144.199,115.897,144.825 M106.913,147.151
			c0.213-1.29,1.21-2.114,2.407-2.114c1.183,0,1.847,0.798,1.661,2.007c-0.212,1.288-1.196,2.111-2.406,2.111
			C107.393,149.155,106.728,148.346,106.913,147.151 M112.377,147.204c0.372-2.248-1.21-3.47-2.952-3.47
			c-1.754,0-3.575,1.091-3.919,3.257c-0.36,2.245,1.182,3.467,2.949,3.467C110.184,150.458,112.043,149.37,112.377,147.204
			 M102.623,145.542c-0.333,2.127-1.716,3.362-3.909,3.362h-1.7l1.036-6.54h1.769C102.011,142.364,102.955,143.495,102.623,145.542
			 M96.749,140.985l-1.476,9.302h3.322c3.351,0,5.13-1.915,5.556-4.559c0.438-2.738-1.024-4.743-4.187-4.743H96.749z M84.084,147.11
			c0.211-1.289,1.222-2.127,2.405-2.127c0.956,0,1.581,0.611,1.754,1.304l-0.252,1.553c-0.426,0.706-1.276,1.371-2.298,1.371
			C84.575,149.211,83.898,148.318,84.084,147.11 M87.938,149.263l-0.173,1.024h1.277l1.009-6.38h-1.275l-0.16,1.076
			c-0.4-0.637-1.116-1.249-2.326-1.249c-1.886,0-3.322,1.474-3.614,3.271c-0.292,1.873,0.757,3.453,2.685,3.453
			C86.528,150.458,87.366,149.928,87.938,149.263 M76.522,144.73c-0.292-0.599-0.891-0.996-1.82-0.996
			c-0.983,0-1.835,0.56-2.272,1.011l0.146-0.838h-1.262l-1.01,6.38h1.421l0.678-4.256c0.386-0.437,1.077-1.034,1.887-1.034
			c0.745,0,1.144,0.464,1.024,1.274l-0.639,4.016h1.422l0.625-3.935c0.026-0.146,0.04-0.292,0.04-0.438
			c0.373-0.4,1.023-0.918,1.768-0.918s1.142,0.464,1.023,1.274l-0.638,4.016h1.423l0.624-3.935c0.201-1.33-0.385-2.618-2.059-2.618
			C77.983,143.734,77.174,144.186,76.522,144.73 M63.061,147.11c0.212-1.289,1.221-2.127,2.405-2.127
			c0.957,0,1.582,0.611,1.753,1.304l-0.25,1.553c-0.427,0.706-1.276,1.371-2.3,1.371C63.552,149.211,62.874,148.318,63.061,147.11
			 M66.914,149.263l-0.171,1.024h1.275l1.01-6.38h-1.276l-0.161,1.076c-0.397-0.637-1.115-1.249-2.325-1.249
			c-1.889,0-3.322,1.474-3.615,3.271c-0.292,1.873,0.758,3.453,2.685,3.453C65.506,150.458,66.343,149.928,66.914,149.263
			 M58.223,144.931l0.159-1.023h-1.261l-1.011,6.38h1.421l0.613-3.828c0.517-0.931,1.568-1.488,2.723-1.263l0.226-1.421
			C59.712,143.654,58.794,144.132,58.223,144.931 M48.854,147.123c0.213-1.302,1.224-2.14,2.406-2.14c0.956,0,1.581,0.6,1.78,1.276
			l-0.28,1.634c-0.425,0.677-1.275,1.317-2.299,1.317C49.345,149.211,48.668,148.318,48.854,147.123 M53.825,150.26l1.009-6.353
			h-1.289l-0.185,1.09c-0.425-0.718-1.13-1.263-2.3-1.263c-1.874,0-3.322,1.474-3.614,3.271c-0.292,1.873,0.758,3.453,2.684,3.453
			c1.156,0,1.954-0.519,2.406-1.021l-0.133,0.758c-0.213,1.396-1.33,1.939-2.592,1.939c-0.983,0-1.741-0.225-2.365-0.665l-0.2,1.262
			c0.638,0.399,1.528,0.653,2.684,0.653C51.725,153.384,53.48,152.52,53.825,150.26 M40.469,147.151
			c0.212-1.29,1.21-2.114,2.405-2.114c1.183,0,1.848,0.798,1.661,2.007c-0.213,1.288-1.195,2.111-2.404,2.111
			C40.947,149.155,40.283,148.346,40.469,147.151 M45.931,147.204c0.373-2.248-1.209-3.47-2.95-3.47
			c-1.753,0-3.574,1.091-3.92,3.257c-0.358,2.245,1.184,3.467,2.951,3.467C43.739,150.458,45.599,149.37,45.931,147.204
			 M35.632,144.931l0.159-1.023h-1.262l-1.011,6.38h1.423l0.611-3.828c0.519-0.931,1.569-1.488,2.724-1.263l0.226-1.421
			C37.121,143.654,36.203,144.132,35.632,144.931 M31.26,143.987c-0.212,1.356-1.289,1.728-2.645,1.728h-1.874l0.531-3.351h2.007
			C30.356,142.364,31.471,142.632,31.26,143.987 M25.97,140.985l-1.474,9.302h1.514l0.505-3.19h1.874
			c2.208,0,4.027-0.65,4.387-2.965c0.384-2.402-1.463-3.146-3.416-3.146H25.97z M18.342,140.586l-1.541,9.701h1.421l1.542-9.701
			H18.342z M9.719,140.985l-1.476,9.302h6.486l0.211-1.383H9.984l0.411-2.617h4.492l0.212-1.382h-4.492l0.4-2.541h4.89l0.226-1.379
			H9.719z"/>
	</g>
</g>
</svg>
